# xmcd CD database file generated by Grip 3.3.1
# 
# Track frame offsets:
#       187
#       9722
#       19492
#       33555
#       48202
#       61205
#       70910
#       82077
#       93270
#       105087
#       113890
#       125720
# 
# Disc length: 1840 seconds
# 
# Revision: 1
# Processed by: cddbd v1.5.1PL2 Copyright (c) Steve Scherf et al.
# Submitted via: Grip 3.3.1
# 
DISCID=9b072e0c
DTITLE=Dinah Shore - Holding Hands at Midnight
DYEAR=1956
DGENRE=Jazz
TTITLE0=Nice Work If You Can Get It
TTITLE1=Easy to Love
TTITLE2=Come Rain or Come Shine
TTITLE3=Once in a While
TTITLE4=It Had to Be You
TTITLE5=You're Driving Me Crazy
TTITLE6=That Great Come-and-Get-It Day
TTITLE7=Moanin' in the Mornin'
TTITLE8=Under a Blanket of Blue
TTITLE9=Taking a Chance on Love
TTITLE10=I Concentrate on You
TTITLE11=Yesterdays
EXTD=YEAR: 1956
EXTT0=
EXTT1=
EXTT2=
EXTT3=
EXTT4=
EXTT5=
EXTT6=
EXTT7=
EXTT8=
EXTT9=
EXTT10=
EXTT11=
PLAYORDER=
